<?xml version="1.0" standalone="no"?>
<!DOCTYPE svg PUBLIC "-//W3C//DTD SVG 20010904//EN"
 "http://www.w3.org/TR/2001/REC-SVG-20010904/DTD/svg10.dtd">
<svg version="1.0" xmlns="http://www.w3.org/2000/svg"
 width="512.000000pt" height="512.000000pt" viewBox="0 0 512.000000 512.000000"
 preserveAspectRatio="xMidYMid meet">

<g transform="translate(0.000000,512.000000) scale(0.100000,-0.100000)"
fill="#000000" stroke="none">
<path d="M2140 4621 c-82 -17 -144 -72 -227 -201 -90 -139 -107 -152 -258
-190 -172 -44 -243 -90 -289 -190 -19 -41 -20 -61 -18 -213 2 -196 3 -194
-103 -322 -93 -113 -120 -172 -120 -260 1 -87 23 -133 125 -260 101 -125 102
-128 98 -308 -4 -184 6 -228 68 -296 l43 -48 -320 -762 c-176 -420 -318 -765
-315 -768 3 -3 165 60 361 141 195 81 359 145 363 142 5 -3 76 -165 157 -360
82 -196 150 -354 152 -352 3 2 154 361 336 797 l333 794 30 3 c17 2 35 -3 41
-10 5 -7 155 -364 333 -793 178 -429 326 -784 330 -788 4 -4 73 152 155 348
81 195 152 358 156 361 5 3 169 -61 365 -141 195 -81 357 -145 360 -142 3 3
-139 348 -314 768 l-320 764 33 35 c19 19 44 58 57 85 21 46 23 61 20 212 -2
120 1 172 11 196 8 17 47 73 87 122 102 128 124 173 124 260 0 91 -18 131
-122 263 -44 56 -85 117 -91 135 -7 20 -10 98 -9 192 2 149 1 164 -21 213 -40
89 -107 134 -263 178 -119 33 -168 52 -192 72 -10 10 -46 58 -79 107 -117 176
-177 220 -297 219 -64 -1 -93 -8 -197 -47 -70 -27 -139 -47 -161 -47 -22 0
-95 20 -163 44 -131 46 -202 59 -259 47z m219 -204 c98 -38 114 -41 201 -41
89 0 103 3 217 47 67 26 135 47 151 47 43 0 74 -30 145 -138 111 -168 147
-196 323 -246 224 -63 218 -55 219 -289 0 -178 1 -183 27 -237 15 -30 53 -86
84 -125 79 -98 114 -155 114 -184 0 -35 -33 -90 -115 -191 -107 -132 -110
-142 -111 -355 0 -138 -3 -185 -14 -202 -18 -28 -80 -55 -190 -83 -170 -43
-219 -80 -330 -245 -86 -128 -110 -149 -166 -141 -34 4 -243 76 -309 106 -11
5 -35 12 -52 15 -26 5 -33 3 -33 -9 0 -9 -16 -19 -42 -27 -24 -6 -89 -29 -146
-50 -164 -63 -183 -56 -284 95 -112 168 -159 204 -332 251 -129 35 -182 58
-197 87 -10 16 -13 76 -14 203 l0 180 -32 60 c-17 33 -61 96 -97 140 -128 156
-128 167 15 347 110 137 114 151 114 358 0 236 -3 232 203 289 190 53 220 74
327 237 86 131 119 158 179 148 22 -3 87 -25 145 -47z m1404 -2737 c135 -322
244 -586 243 -588 -2 -1 -117 45 -257 103 -139 58 -256 105 -260 105 -6 0 -39
-75 -174 -398 -26 -62 -51 -110 -55 -105 -4 4 -100 231 -213 503 -113 272
-215 517 -226 544 -19 44 -20 48 -4 41 10 -4 48 -10 86 -12 126 -10 195 35
308 203 80 120 112 149 187 170 31 8 68 19 82 23 14 5 28 6 32 2 4 -3 117
-269 251 -591z m-2060 569 c97 -27 122 -47 199 -163 129 -193 212 -243 355
-213 60 13 61 13 53 -7 -6 -17 -384 -919 -437 -1045 -8 -18 -16 -31 -19 -28
-3 2 -52 116 -109 252 -57 136 -106 249 -109 252 -2 3 -120 -43 -262 -101
-141 -59 -258 -105 -259 -104 -6 7 491 1178 499 1178 5 0 45 -10 89 -21z"/>
<path d="M2430 4200 c-248 -35 -490 -178 -639 -379 -63 -85 -135 -233 -163
-336 -28 -106 -31 -344 -5 -447 46 -183 126 -328 256 -461 122 -127 268 -212
442 -259 122 -33 356 -33 478 0 348 94 609 364 698 720 27 106 24 333 -5 442
-111 417 -467 706 -891 724 -58 3 -135 1 -171 -4z m265 -165 c162 -28 292 -94
412 -208 405 -385 306 -1047 -192 -1293 -132 -65 -195 -79 -355 -79 -160 0
-223 14 -355 79 -258 127 -423 377 -442 667 -26 397 261 762 654 833 104 19
173 19 278 1z"/>
<path d="M2524 3877 c-11 -7 -92 -85 -179 -175 l-159 -163 57 -57 57 -57 90
95 89 95 1 -382 0 -383 -120 0 -120 0 0 -80 0 -80 320 0 320 0 0 80 0 80 -120
0 -120 0 0 493 c-1 519 0 510 -47 535 -27 15 -42 15 -69 -1z"/>
</g>
</svg>
