<?xml version="1.0" standalone="no"?>
<!DOCTYPE svg PUBLIC "-//W3C//DTD SVG 20010904//EN"
 "http://www.w3.org/TR/2001/REC-SVG-20010904/DTD/svg10.dtd">
<svg version="1.0" xmlns="http://www.w3.org/2000/svg"
 width="512.000000pt" height="512.000000pt" viewBox="0 0 512.000000 512.000000"
 preserveAspectRatio="xMidYMid meet">

<g transform="translate(0.000000,512.000000) scale(0.100000,-0.100000)"
fill="#000000" stroke="none">
<path d="M2185 4579 c-11 -6 -50 -42 -86 -81 l-66 -71 -94 13 c-89 12 -97 12
-141 -8 -44 -19 -50 -26 -91 -114 -25 -52 -51 -99 -59 -105 -7 -7 -47 -19 -87
-27 -140 -29 -171 -66 -178 -209 -3 -51 -11 -102 -18 -113 -8 -12 -38 -35 -67
-52 -30 -16 -69 -46 -86 -66 -27 -30 -32 -45 -32 -85 0 -26 9 -74 20 -106 30
-87 27 -105 -31 -185 -38 -52 -53 -81 -56 -114 -8 -64 1 -87 57 -160 55 -72
61 -100 35 -164 -56 -132 -32 -202 91 -272 75 -44 81 -53 87 -152 8 -138 48
-183 187 -208 84 -15 93 -21 115 -72 49 -118 67 -148 101 -168 32 -20 43 -21
148 -15 l113 7 53 -61 c62 -71 124 -106 174 -97 18 4 68 24 110 46 85 42 82
43 173 -3 26 -14 65 -30 87 -35 55 -16 110 13 181 94 l56 64 122 -7 c119 -6
123 -5 150 18 15 13 49 67 75 119 l47 95 55 13 c100 23 127 32 155 54 37 29
55 76 55 146 0 111 4 118 95 176 121 79 134 116 90 253 -14 43 -25 85 -25 94
0 9 17 38 39 65 48 61 81 125 81 159 0 37 -25 92 -65 140 -59 73 -61 82 -30
175 46 138 30 182 -96 262 -43 27 -79 51 -80 52 0 0 -4 47 -8 104 -11 145 -40
180 -171 207 -41 9 -84 22 -96 30 -13 8 -31 41 -44 81 -25 73 -64 125 -111
144 -25 11 -49 11 -126 1 l-96 -13 -71 70 c-39 38 -81 75 -93 81 -43 22 -99
13 -188 -31 l-85 -42 -83 42 c-85 44 -148 54 -192 31z m167 -144 c50 -25 101
-45 113 -45 12 0 63 20 114 45 51 25 98 45 106 45 7 0 41 -30 76 -66 35 -36
76 -72 91 -80 32 -17 108 -18 178 -3 63 13 92 -2 110 -58 22 -67 59 -132 86
-150 14 -9 65 -27 112 -40 47 -12 92 -29 100 -37 9 -9 17 -49 21 -110 9 -117
18 -131 122 -202 41 -27 75 -58 77 -68 2 -10 -8 -56 -23 -102 -32 -101 -29
-132 20 -201 19 -26 46 -65 61 -86 31 -44 28 -56 -31 -127 -42 -49 -74 -113
-75 -146 0 -11 11 -54 25 -94 36 -107 35 -114 -32 -156 -66 -41 -110 -80 -126
-109 -6 -11 -14 -63 -18 -115 -8 -106 -20 -125 -87 -135 -136 -21 -170 -47
-225 -175 l-33 -75 -116 3 c-137 4 -146 1 -238 -92 -35 -36 -69 -66 -75 -66
-5 0 -50 21 -100 46 -105 53 -136 54 -232 6 -102 -52 -95 -53 -182 31 -91 89
-113 96 -237 77 -77 -12 -85 -12 -104 5 -10 9 -24 34 -31 54 -21 65 -62 131
-93 150 -17 10 -65 26 -107 35 -42 9 -83 22 -92 29 -12 9 -19 40 -25 113 -11
122 -24 144 -115 202 -100 63 -98 56 -57 194 30 96 23 125 -55 227 -30 40 -55
76 -55 80 0 5 11 23 24 42 116 162 120 177 82 288 -14 41 -26 82 -26 92 0 10
17 30 38 45 20 16 56 42 79 58 58 42 80 93 90 201 l8 89 35 12 c19 7 61 17 93
24 80 16 115 50 163 156 l38 86 110 -7 c70 -4 121 -3 138 4 15 6 58 42 96 81
38 38 75 70 81 70 7 0 53 -20 103 -45z"/>
<path d="M2399 4286 c-20 -14 -43 -36 -52 -50 -30 -45 -48 -48 -108 -16 -66
36 -134 40 -171 10 -14 -10 -39 -49 -56 -85 l-32 -65 -82 6 c-128 9 -157 -18
-173 -159 -7 -64 -11 -68 -93 -87 -64 -15 -108 -49 -117 -91 -4 -19 0 -59 11
-101 l19 -71 -34 -26 c-19 -14 -53 -43 -75 -63 -36 -32 -41 -42 -41 -81 0 -32
8 -55 30 -86 63 -91 62 -79 14 -151 -73 -108 -61 -158 53 -231 26 -17 48 -38
48 -48 0 -9 -8 -47 -17 -84 -17 -66 -17 -69 2 -105 21 -38 61 -59 152 -82 l41
-10 7 -68 c15 -138 50 -169 180 -157 l73 7 31 -65 c55 -114 106 -138 211 -97
69 27 91 25 126 -11 80 -85 168 -80 246 15 16 20 35 36 43 36 7 0 42 -13 77
-30 34 -16 74 -30 88 -30 47 0 89 36 123 107 l33 68 77 -4 c129 -5 161 20 176
146 8 67 25 93 60 93 38 0 97 24 123 50 33 34 37 85 12 165 l-15 50 37 30 c97
78 114 100 114 148 0 37 -7 54 -40 98 -22 30 -40 59 -40 66 0 7 18 40 40 74
56 88 56 127 -4 183 -24 22 -58 52 -76 66 l-31 25 15 50 c38 123 14 173 -97
206 -40 12 -76 25 -81 30 -5 5 -13 38 -17 73 -9 75 -30 120 -61 137 -13 7 -58
11 -108 10 l-86 -1 -32 65 c-34 69 -76 105 -123 105 -14 0 -57 -16 -95 -35
l-69 -35 -40 45 c-78 88 -131 105 -196 61z m129 -122 c76 -74 112 -80 209 -35
69 33 68 33 101 -41 11 -26 32 -59 46 -73 23 -23 32 -25 120 -25 l94 0 6 -27
c2 -16 8 -49 11 -75 9 -72 42 -104 132 -131 l75 -21 -6 -36 c-3 -19 -9 -63
-12 -97 l-7 -63 44 -42 c24 -24 58 -52 74 -64 l30 -21 -18 -34 c-10 -19 -29
-52 -42 -74 -35 -57 -32 -91 15 -164 22 -34 40 -66 40 -71 0 -5 -27 -30 -60
-55 -33 -25 -64 -55 -70 -65 -15 -27 -12 -89 6 -149 8 -29 13 -55 11 -57 -2
-3 -35 -13 -73 -24 -93 -25 -130 -64 -139 -146 -3 -33 -7 -65 -8 -73 -2 -11
-23 -15 -98 -15 -115 -1 -124 -7 -169 -103 -16 -34 -32 -63 -35 -63 -3 0 -23
9 -44 20 -21 10 -58 24 -82 30 -52 13 -79 5 -124 -36 -16 -15 -42 -38 -57 -52
l-27 -24 -53 50 c-84 79 -115 84 -227 35 -29 -12 -55 -23 -57 -23 -2 0 -18 29
-34 63 -45 96 -55 102 -166 101 l-93 0 -6 45 c-13 100 -17 115 -44 142 -17 17
-56 36 -100 50 -73 22 -73 22 -67 53 3 17 9 59 12 93 8 76 -2 95 -81 153 -30
22 -55 46 -55 53 0 7 18 39 40 72 53 80 53 113 0 193 -22 33 -40 64 -40 70 0
6 20 25 44 41 96 66 114 118 81 227 -17 57 -11 67 53 79 57 11 110 42 128 77
9 18 19 60 22 95 l5 63 92 0 c113 0 134 13 177 107 l28 63 38 -16 c138 -61
166 -58 247 25 21 23 45 41 53 41 7 0 34 -21 60 -46z"/>
<path d="M2295 3790 c-22 -5 -58 -14 -80 -22 l-40 -13 -3 -67 -3 -66 61 25
c185 74 326 39 338 -85 9 -95 -55 -194 -213 -333 -57 -50 -129 -121 -159 -158
l-56 -68 0 -77 0 -76 310 0 310 0 0 75 0 75 -200 0 c-160 0 -200 3 -200 13 0
33 72 116 180 207 186 156 220 208 220 334 0 109 -59 185 -178 228 -51 19
-212 23 -287 8z"/>
<path d="M1636 2115 c-19 -19 -5 34 -145 -572 -93 -401 -119 -527 -112 -545
12 -33 67 -78 94 -78 12 0 94 11 182 24 l160 24 68 -47 c37 -25 102 -70 143
-98 138 -96 184 -71 229 122 101 440 144 608 149 595 3 -8 57 -242 121 -520
64 -278 120 -520 126 -537 14 -44 53 -73 99 -73 31 0 61 16 176 97 l139 97
155 -22 c85 -13 165 -22 178 -22 39 0 83 30 98 65 13 31 6 67 -132 662 -80
345 -150 634 -156 641 -20 24 -88 4 -88 -26 0 -4 64 -283 142 -619 78 -337
139 -615 137 -617 -3 -3 -79 6 -169 20 -91 14 -174 23 -185 20 -12 -3 -82 -48
-155 -100 -74 -52 -138 -91 -142 -88 -3 4 -72 295 -153 647 -81 352 -152 645
-157 651 -5 7 -18 14 -28 17 -48 12 -54 -7 -166 -488 -58 -253 -109 -463 -113
-467 -3 -4 -67 35 -141 87 -74 53 -145 98 -158 101 -13 4 -97 -5 -188 -18
-138 -21 -164 -22 -164 -10 0 11 205 904 236 1029 4 14 -2 29 -15 42 -25 25
-44 27 -65 6z"/>
</g>
</svg>
