<?xml version="1.0" standalone="no"?>
<!DOCTYPE svg PUBLIC "-//W3C//DTD SVG 20010904//EN"
 "http://www.w3.org/TR/2001/REC-SVG-20010904/DTD/svg10.dtd">
<svg version="1.0" xmlns="http://www.w3.org/2000/svg"
 width="512.000000pt" height="512.000000pt" viewBox="0 0 512.000000 512.000000"
 preserveAspectRatio="xMidYMid meet">

<g transform="translate(0.000000,512.000000) scale(0.100000,-0.100000)"
fill="#000000" stroke="none">
<path d="M2367 4561 c-20 -15 -53 -48 -73 -72 -20 -24 -43 -48 -51 -52 -8 -5
-51 -4 -98 3 -143 20 -176 2 -240 -135 -47 -102 -44 -99 -169 -126 -106 -23
-145 -77 -147 -201 -1 -109 -5 -116 -87 -166 -122 -74 -141 -124 -98 -257 14
-44 26 -86 26 -93 0 -8 -25 -48 -55 -89 -84 -115 -84 -169 0 -277 25 -33 48
-68 51 -80 2 -12 -7 -54 -21 -93 -47 -135 -31 -180 90 -259 91 -58 95 -65 95
-162 0 -122 43 -171 173 -199 99 -21 114 -35 151 -131 29 -74 66 -116 113
-128 14 -4 66 -2 116 3 l92 9 81 -77 c113 -106 136 -109 283 -35 l73 37 86
-41 c134 -64 168 -57 270 56 l60 67 95 -9 c159 -15 185 -1 249 138 44 95 46
96 153 118 123 25 155 65 163 203 2 51 9 98 15 105 6 7 41 33 77 56 37 24 77
57 88 74 28 39 29 104 2 179 -29 83 -26 108 19 167 98 128 97 179 -3 310 -40
53 -45 86 -21 144 27 63 35 116 24 154 -10 40 -67 96 -126 127 -63 31 -70 46
-75 148 -8 143 -39 180 -179 209 -42 9 -83 24 -95 35 -11 10 -31 49 -44 85
-27 78 -74 130 -125 140 -19 3 -70 1 -113 -5 -44 -6 -86 -9 -95 -5 -9 3 -33
26 -53 51 -95 116 -158 129 -291 61 l-83 -42 -85 42 c-108 53 -164 57 -218 13z
m181 -123 c102 -56 140 -56 246 0 44 23 87 42 97 42 10 0 43 -29 75 -64 76
-86 106 -100 203 -92 42 3 88 8 102 12 35 8 61 -20 89 -99 14 -37 37 -77 59
-98 30 -31 49 -39 120 -54 110 -24 121 -36 121 -123 0 -121 28 -169 141 -238
32 -19 60 -41 63 -49 3 -9 -6 -50 -19 -93 -41 -128 -34 -162 51 -271 49 -62
53 -84 23 -121 -11 -14 -38 -52 -60 -84 -48 -72 -50 -109 -13 -218 31 -91 33
-87 -67 -153 -93 -63 -111 -94 -118 -212 -7 -112 -11 -116 -109 -133 -112 -19
-155 -54 -196 -160 -37 -94 -32 -92 -161 -84 -105 6 -116 5 -148 -15 -19 -12
-56 -46 -81 -76 -26 -29 -55 -57 -66 -60 -12 -4 -50 10 -106 39 -50 27 -99 46
-118 46 -18 0 -69 -18 -115 -40 -45 -22 -90 -40 -99 -40 -8 0 -50 33 -92 74
-90 88 -113 95 -236 76 -101 -16 -103 -15 -139 80 -44 115 -67 134 -194 165
-99 24 -111 37 -111 124 0 119 -21 155 -131 227 -37 24 -69 50 -72 58 -3 8 5
49 19 92 41 129 34 161 -56 275 -22 28 -40 59 -40 69 0 9 23 48 51 86 28 38
55 79 60 92 15 39 10 92 -16 169 -30 86 -26 99 39 137 114 67 145 118 146 237
0 94 7 101 113 122 108 22 131 42 183 155 l44 94 114 -7 c135 -9 142 -6 236
89 35 36 71 66 78 66 8 0 49 -19 90 -42z"/>
<path d="M2625 4298 c-11 -6 -43 -32 -70 -59 l-50 -49 -64 30 c-119 57 -177
37 -227 -79 l-26 -59 -95 1 c-94 2 -94 2 -123 -30 -22 -24 -30 -45 -35 -90
-11 -100 -11 -101 -58 -113 -154 -39 -182 -82 -142 -214 8 -27 15 -53 15 -57
0 -5 -27 -26 -59 -49 -73 -49 -91 -73 -91 -123 0 -43 10 -65 51 -118 16 -20
29 -43 29 -50 0 -8 -18 -41 -40 -74 -65 -97 -54 -155 40 -215 71 -45 72 -48
55 -114 -33 -128 -11 -170 109 -205 83 -24 79 -19 91 -121 12 -102 52 -132
171 -128 l76 3 38 -70 c56 -105 108 -127 205 -85 66 28 86 25 140 -22 40 -35
55 -42 101 -46 53 -4 53 -4 112 52 32 31 64 56 71 56 6 0 33 -11 60 -25 111
-58 163 -42 217 71 l34 70 83 -4 c126 -7 150 14 170 144 l12 79 70 20 c95 27
112 39 126 85 10 32 9 49 -5 98 -9 32 -16 66 -16 75 0 9 27 35 60 57 110 75
116 126 26 250 l-28 39 34 53 c20 29 40 63 47 75 28 54 2 108 -79 163 -33 22
-60 46 -60 53 0 7 7 44 16 84 27 114 4 147 -131 183 l-60 15 -12 85 c-11 75
-16 88 -43 113 -32 29 -39 30 -142 27 l-67 -2 -30 60 c-35 69 -81 112 -120
112 -14 0 -59 -15 -98 -34 l-71 -34 -48 50 c-73 75 -120 93 -169 66z m100
-129 c73 -75 121 -86 203 -46 85 41 79 43 111 -26 42 -94 64 -107 176 -107
l92 0 7 -66 c11 -112 27 -130 146 -169 73 -25 71 -21 49 -123 -12 -59 -12 -66
6 -100 11 -20 45 -54 75 -75 30 -21 56 -42 58 -47 2 -5 -11 -30 -28 -55 -71
-103 -71 -137 -5 -231 19 -27 35 -52 35 -55 0 -4 -27 -26 -60 -50 -83 -61 -97
-91 -81 -166 24 -114 24 -113 -46 -133 -34 -9 -74 -25 -88 -34 -32 -21 -55
-72 -55 -123 0 -81 -1 -81 -99 -75 -84 4 -88 4 -120 -24 -18 -15 -44 -54 -58
-86 -14 -32 -30 -58 -35 -58 -5 0 -26 9 -46 19 -62 31 -116 43 -148 31 -16 -6
-52 -34 -82 -62 l-53 -50 -54 51 c-30 28 -66 56 -82 62 -32 12 -93 0 -154 -31
-21 -11 -42 -20 -47 -20 -5 0 -21 26 -35 58 -14 32 -40 71 -58 86 -32 27 -37
28 -117 23 -58 -3 -84 -1 -86 7 -2 6 -8 42 -14 80 -14 91 -41 119 -140 148
-70 21 -73 23 -68 47 28 123 30 141 13 175 -10 21 -40 51 -76 76 -34 22 -61
44 -61 47 0 4 19 36 42 71 57 87 56 117 -1 206 -25 37 -40 70 -35 75 5 4 33
25 62 45 54 39 82 79 82 116 0 12 -8 50 -17 86 -9 35 -15 66 -12 69 4 3 33 12
65 21 32 8 69 22 82 30 35 23 62 75 62 119 0 85 1 85 105 85 111 0 125 8 170
101 17 35 35 63 40 62 6 -1 39 -14 74 -29 85 -35 116 -29 188 35 31 28 62 51
68 51 6 0 29 -18 50 -41z"/>
<path d="M2485 3785 c-33 -7 -66 -14 -72 -14 -9 -1 -13 -21 -13 -66 0 -36 2
-65 4 -65 2 0 20 7 39 15 56 23 171 36 220 26 63 -15 97 -57 97 -122 0 -98
-54 -143 -192 -159 -46 -6 -86 -10 -90 -10 -5 0 -8 -24 -8 -54 l0 -54 88 -4
c159 -8 227 -60 227 -175 0 -73 -20 -108 -80 -137 -51 -25 -158 -24 -245 3
-36 12 -69 21 -73 21 -4 0 -7 -30 -5 -67 l3 -67 35 -8 c52 -12 289 -10 347 2
77 17 152 66 188 124 26 44 30 58 30 125 0 58 -5 86 -21 116 -25 49 -88 99
-153 122 l-49 17 61 30 c179 90 183 309 7 389 -59 26 -255 33 -345 12z"/>
<path d="M1842 2113 c-15 -14 -46 -131 -141 -543 -67 -289 -121 -537 -121
-552 0 -36 44 -86 83 -93 18 -3 105 5 195 19 l163 25 142 -100 c159 -112 184
-119 237 -71 30 26 35 44 114 383 46 196 85 361 87 368 2 6 60 -233 129 -531
120 -524 126 -544 156 -576 54 -55 83 -48 237 59 73 51 139 94 148 96 9 3 80
-5 158 -16 195 -29 206 -28 247 13 19 19 34 44 34 57 0 45 -284 1254 -298
1272 -30 34 -82 15 -82 -30 0 -12 63 -294 140 -625 77 -331 138 -603 137 -605
-2 -1 -79 9 -172 22 -92 14 -177 23 -189 19 -11 -4 -81 -49 -155 -100 -74 -52
-136 -92 -138 -90 -2 2 -71 293 -153 647 -122 532 -152 646 -169 660 -21 17
-56 15 -67 -3 -4 -5 -55 -219 -115 -476 -60 -256 -111 -467 -113 -469 -2 -2
-68 41 -147 96 -106 75 -151 101 -174 101 -16 0 -99 -11 -183 -24 l-153 -23 7
31 c3 17 58 251 120 520 63 269 114 497 114 507 0 16 -34 49 -51 49 -4 0 -16
-8 -27 -17z"/>
</g>
</svg>
